<svg xmlns="http://www.w3.org/2000/svg" width="400" height="400" viewBox="0 0 400 400">
  <g fill="none" stroke="#ccc" stroke-width="1" opacity="0.2">
    <!-- Simple doodle circles, lines, hearts to mimic WA pattern -->
    <path d="M20 20c5 0 5 10 10 10s5-10 10-10"/>
    <circle cx="50" cy="50" r="5"/>
    <path d="M80 20l10 10m0-10l-10 10"/>
    <path d="M200 40c-2-4-8-4-10 0-2 4 10 12 10 12s12-8 10-12z" fill="#ccc" opacity="0.3"/>
    <path d="M300 20l20 5-10 15z" stroke-dasharray="2,2"/>
    <rect x="50" y="150" width="10" height="10" rx="2"/>
    <circle cx="250" cy="180" r="8" stroke-dasharray="3,3"/>
    <path d="M100 250q15-20 30 0" stroke-width="2"/>
    <path d="M350 300c10-10 20-10 30 0" stroke-linecap="round"/>
    <circle cx="150" cy="350" r="4" fill="#ccc"/>
    <path d="M20 380h40" stroke-width="3" opacity="0.1"/>
  </g>
</svg>
